<svg id="cloth" xmlns="http://www.w3.org/2000/svg" width="102.518" height="111.121" viewBox="0 0 102.518 111.121">
  <path id="Path_19178" data-name="Path 19178" d="M266.369,211.287c-1.341-10.2-1.768-20.446-3.663-30.585-1.065-5.7-.82-13.249-6.429-16.581a.723.723,0,0,0-.977.277c-3.438-.28-4.167,6.725-4.333,9.023-.614,8.491-1.085,17.221-1.255,25.73-.1,4.991-1.405,11.066.9,15.727,2.448,4.952,11.119-.942,14.28-1.651A1.985,1.985,0,0,0,266.369,211.287Z" transform="translate(-163.861 -155.881)" fill="#e62e2e"/>
  <path id="Path_19179" data-name="Path 19179" d="M259.89,163.189c-5.457-1.728-9.267-2.073-14.774-4.039a5.525,5.525,0,0,1-.028.625c-.667,4.967-8.263,8.046-16.968,6.88-7.977-1.07-14.1-5.335-14.559-9.862-4.334,1.215-9.327,1.014-14.562,1.683-14.022,1.794-10.221,2.092-7.437,24.214.4,3.162,3.421,16.136,7.167,29.751a16.123,16.123,0,0,0,.777,7.4,34.37,34.37,0,0,0,2.38,5.406c.253,1.788.4,3.565.481,5.317-.361.985-1.114,2.056-1.1,3.1a18.153,18.153,0,0,0,.944,5.435c-.118,1.51-.272,2.97-.451,4.365a21.137,21.137,0,0,0-1.841,2.334,4.019,4.019,0,0,0,.168,5.158,5.465,5.465,0,0,0-.926,2.646,7.036,7.036,0,0,0,.42,2.33c0,.012,0,.026.008.037a11.638,11.638,0,0,0-.189,1.7C199.391,268.5,261,272.1,261.487,261.773c.018-.366.034-.81.052-1.291a4.675,4.675,0,0,0,1.235-1.985,5.741,5.741,0,0,0-.822-3.745c.2-.547.3-1.18.483-1.695a6.236,6.236,0,0,0,.623-2.367,3.259,3.259,0,0,0-1.051-2.006c.783-3,1.424-5.558.7-8.742-.152-.669-.351-1.329-.566-1.985.342-12.151.844-26.386,1.671-37.3.557-7.359,1.327-14.771,1.327-15.946C265.138,166.752,268.275,165.846,259.89,163.189Z" transform="translate(-171.463 -156.792)" fill="#9a1f1f"/>
  <path id="Path_19180" data-name="Path 19180" d="M202.43,181.291c-.946-6.621-3.961-16.018-8.46-21.158a1.247,1.247,0,0,0-1.773-.194c-3.887.966-5.428,7.561-6.451,10.68-2.93,8.946-10.348,20.9-12.307,30.191-.143.679.339,1.079.88,1.549,3.291,2.867,12.3,6.885,18.438,8.972,4.775,1.624,3.7,1.258,5.133-2.076,1.031-2.395,4.639-10.793,5.183-13.13C204.1,191.729,203.129,186.186,202.43,181.291Z" transform="translate(-173.413 -156.431)" fill="#e62e2e"/>
</svg>
