<svg id="goggles" xmlns="http://www.w3.org/2000/svg" width="130.471" height="34.687" viewBox="0 0 130.471 34.687">
  <path id="Path_19141" data-name="Path 19141" d="M97.528,167.3c1.068-11.595-2.864-11.607-25.04-11.577-21.079.024-26.342.054-25.013,11.64,1.335,11.607,8.383,17.048,25.046,17.048C89.028,184.413,96.661,176.708,97.528,167.3Z" transform="translate(27.383 -152.551)" fill="#9a1f1f" opacity="0.3" style="mix-blend-mode: multiply;isolation: isolate"/>
  <path id="Path_19142" data-name="Path 19142" d="M24.395,167.4C23.3,155.807,27.229,155.783,49.4,155.753c21.082-.024,26.348-.009,25.043,11.583-1.3,11.607-8.071,17.111-25.014,17.111C35.939,184.447,25.283,176.8,24.395,167.4Z" transform="translate(-18.703 -152.495)" fill="#9a1f1f" opacity="0.3" style="mix-blend-mode: multiply;isolation: isolate"/>
  <path id="Path_19143" data-name="Path 19143" d="M97.52,160.574c-.867,9.406-8.5,17.111-25.008,17.111-16.664,0-23.712-5.441-25.046-17.048-.06-.531-.093-1.011-.123-1.5a21.384,21.384,0,0,0,.123,4.232c1.335,11.607,8.383,17.048,25.046,17.048,16.508,0,24.141-7.7,25.008-17.111a26.067,26.067,0,0,0,.1-4.22C97.594,159.569,97.568,160.046,97.52,160.574Z" transform="translate(27.391 -145.822)" fill="#9a1f1f" opacity="0.5" style="mix-blend-mode: multiply;isolation: isolate"/>
  <path id="Path_19144" data-name="Path 19144" d="M74.439,160.59C73.137,172.2,66.368,177.7,49.425,177.7c-13.493,0-24.15-7.648-25.037-17.051-.051-.54-.081-1.032-.108-1.521a25.664,25.664,0,0,0,.108,4.259c.888,9.4,11.544,17.048,25.037,17.048,16.943,0,23.712-5.5,25.013-17.111a21.469,21.469,0,0,0,.117-4.2C74.526,159.6,74.5,160.068,74.439,160.59Z" transform="translate(-18.696 -145.748)" fill="#9a1f1f" opacity="0.5" style="mix-blend-mode: multiply;isolation: isolate"/>
  <path id="Path_19145" data-name="Path 19145" d="M66.329,158.994c5.006.807,8.884,2.576,9.076,1.377s-3.707-2.828-8.713-3.635-9.217-.492-9.412.708S61.32,158.187,66.329,158.994Z" transform="translate(47.359 -151.423)" fill="#fff"/>
  <path id="Path_19146" data-name="Path 19146" d="M43.014,158.994c5.006.807,8.881,2.576,9.076,1.377s-3.707-2.828-8.713-3.635-9.22-.492-9.415.708S38.005,158.187,43.014,158.994Z" transform="translate(0.741 -151.423)" fill="#fff"/>
  <g id="Group_35192" data-name="Group 35192" transform="translate(0)">
    <path id="Path_19147" data-name="Path 19147" d="M28.07,169.447c-1.053-11.466,2.924-11.493,25.016-11.523,21.082-.024,26.348-.009,25.043,11.583a33.236,33.236,0,0,1-.939,5.411s4.7-2.7,4.961-3.3c.9-2.048,2.978-5.258,5.531-5.261,2.153,0,4.574,3.431,5.573,5.462.2.414,4.952,3.1,4.952,3.1a33.223,33.223,0,0,1-.963-5.438c-1.329-11.586,3.935-11.616,25.013-11.64,22.176-.03,26.108-.018,25.041,11.577l0,.03,3.539-2.771c.543-5.231,3.152-5.891,1.464-8.077-2.951-3.815-13.194-3.95-28.355-3.932-.549,0-13.14.015-13.709.012-16.121.024-13.862,2.654-22.56,2.666s-6.448-2.624-22.563-2.606l-13.694.018c-15.608.024-25.829.186-28.6,4.346-1.455,2.174,1.254,2.705,1.713,7.609Z" transform="translate(-22.387 -154.666)" fill="#262626"/>
  </g>
</svg>
