<svg width="19" height="19" viewBox="0 0 19 19" fill="none" xmlns="http://www.w3.org/2000/svg">
<g clip-path="url(#clip0)">
<path d="M9.5 0C7.62108 0 5.78435 0.557165 4.22209 1.60104C2.65982 2.64491 1.44218 4.12861 0.723149 5.86451C0.00411627 7.60041 -0.184015 9.51054 0.182544 11.3534C0.549104 13.1962 1.45389 14.8889 2.78249 16.2175C4.11109 17.5461 5.80383 18.4509 7.64665 18.8175C9.48947 19.184 11.3996 18.9959 13.1355 18.2769C14.8714 17.5578 16.3551 16.3402 17.399 14.7779C18.4428 13.2156 19 11.3789 19 9.5C18.9971 6.98133 17.9953 4.56663 16.2143 2.78566C14.4334 1.00469 12.0187 0.00287356 9.5 0V0Z" fill="#04C400"/>
<path d="M14.3151 7.48737L9.16886 12.6336C9.09538 12.7072 9.00812 12.7656 8.91206 12.8054C8.816 12.8452 8.71302 12.8657 8.60903 12.8657C8.50505 12.8657 8.40209 12.8452 8.30603 12.8054C8.20997 12.7656 8.12271 12.7072 8.04922 12.6336L5.47064 10.0551C5.32217 9.90661 5.23877 9.70523 5.23877 9.49526C5.23877 9.28528 5.32217 9.08392 5.47064 8.93545C5.61911 8.78697 5.8205 8.70355 6.03047 8.70355C6.24044 8.70355 6.44183 8.78697 6.5903 8.93545L8.60293 10.9481L13.1887 6.36229C13.2622 6.28877 13.3495 6.23047 13.4456 6.19068C13.5416 6.15089 13.6446 6.13042 13.7485 6.13042C13.8525 6.13042 13.9555 6.15089 14.0515 6.19068C14.1476 6.23047 14.2349 6.28877 14.3084 6.36229C14.3819 6.43581 14.4402 6.52308 14.48 6.61913C14.5198 6.71519 14.5402 6.81815 14.5402 6.92212C14.5402 7.02609 14.5198 7.12903 14.48 7.22508C14.4402 7.32114 14.3819 7.40843 14.3084 7.48195L14.3151 7.48737Z" fill="#FAFAFA"/>
</g>
<defs>
<clipPath id="clip0">
<rect width="19" height="19" fill="white"/>
</clipPath>
</defs>
</svg>
