<svg xmlns="http://www.w3.org/2000/svg" xmlns:xlink="http://www.w3.org/1999/xlink" width="128.026" height="66.335" viewBox="0 0 128.026 66.335">
  <defs>
    <linearGradient id="linear-gradient" x1="0.071" y1="0.732" x2="0.936" y2="0.5" gradientUnits="objectBoundingBox">
      <stop offset="0" stop-color="#e22017"/>
      <stop offset="0.499" stop-color="#12d0c6"/>
      <stop offset="1" stop-color="#4b40d9"/>
    </linearGradient>
    <linearGradient id="linear-gradient-2" x1="0.5" x2="0.5" y2="1" gradientUnits="objectBoundingBox">
      <stop offset="0" stop-color="#4ffd01"/>
      <stop offset="1" stop-color="#7efc01"/>
    </linearGradient>
  </defs>
  <g id="shoes" transform="translate(1.03)">
    <path id="Path_19177" data-name="Path 19177" d="M178.7,238.354c1.644,3.564,1.1,12.609.274,12.884a152.928,152.928,0,0,1-21.842,2.646c-12.876,1.029-64.818,1.809-80.8.3-12.663-1.195-25.924-5.963-20.99-18.847C68.773,239.724,178.7,238.354,178.7,238.354Z" transform="translate(-54.285 -189.198)" fill="#624355" stroke="#66313e" stroke-width="1"/>
    <path id="Path_19148" data-name="Path 19148" d="M83.321,230.261a2.148,2.148,0,0,0,2.952.715l48.835-29.793a2.148,2.148,0,0,0,.715-2.952h0a2.148,2.148,0,0,0-2.952-.716L84.036,227.308a2.147,2.147,0,0,0-.714,2.952Z" transform="translate(-55.879 -197.2)" fill="#624355"/>
    <path id="Path_19149" data-name="Path 19149" d="M178.7,238.354c1.644,3.564,1.1,12.609.274,12.884a152.928,152.928,0,0,1-21.842,2.646c-12.876,1.029-64.818,1.809-80.8.3-12.663-1.195-25.924-5.963-20.99-18.847C68.773,239.724,178.7,238.354,178.7,238.354Z" transform="translate(-54.285 -199.317)" fill="#624355" stroke="#66313e" stroke-linecap="round" stroke-width="2" stroke-dasharray="2"/>
    <path id="Path_19150" data-name="Path 19150" d="M179.422,238.092c3.412-7.11,0-25.88-4.835-32.989s-9.67-.853-11.66,4.265-7.679,9.954-16.5,2.844-13.366-13.366-21.329-9.1S94.674,221.882,85,224.726s-29.577,1.138-29.861,8.816,1.138,10.238,10.523,10.807,64.841-.853,64.841-.853Z" transform="translate(-54.33 -197.451)" fill="url(#linear-gradient)"/>
    <g id="Group_35195" data-name="Group 35195" transform="translate(58.802 4.27)">
      <path id="Path_19151" data-name="Path 19151" d="M168.088,212.987c-2.349,5.119-9.059,9.954-19.459,2.844s-15.768-13.366-25.162-9.1c-1.771.8-4.152,1.973-6.924,3.359,4.942-2.931,9.283-5.537,11.97-6.977,7.963-4.266,12.513,1.991,21.329,9.1s14.5,2.275,16.5-2.844,6.825-11.375,11.66-4.265c.189.278.375.579.559.892C174.058,203.994,169.982,208.858,168.088,212.987Z" transform="translate(-116.543 -201.721)" fill="#624355"/>
    </g>
    <path id="Path_19152" data-name="Path 19152" d="M105.712,244.667c-1.378-.92-2.951-1.472-4.406-2.35-.611-.368-1.24-.74-1.874-1.12,5.9-7.884,17.26-14.467,27.48-15.472L173.93,221.1l-3.326,7.12-43.047,4.235c-6.787.776-17.215,5.564-21.56,11.628Z" transform="translate(-56.791 -198.527)" fill="#fce179"/>
    <path id="Path_19153" data-name="Path 19153" d="M172.331,232.036c2.467-5.562,2.554-11.235,3.053-17.18.2-2.414.325-5.778,3.139-6.541a4.346,4.346,0,0,1,3.951.412c3.817,8.472,6.026,23.52,3.053,29.715l-20.459,2.26C167.859,238.114,170.84,235.4,172.331,232.036Z" transform="translate(-60.435 -197.802)" stroke="#66fd01" stroke-width="1" fill="url(#linear-gradient-2)"/>
    <path id="Path_19154" data-name="Path 19154" d="M179.52,208.983c-2.814.762-3.207,4.171-3.411,6.585-.5,5.946-.45,11.852-2.917,17.413a25.279,25.279,0,0,1-5.356,7.4l-2.77.306a27.865,27.865,0,0,0,6.823-8.819c2.467-5.562,2.418-11.469,2.917-17.414.2-2.414.6-5.822,3.411-6.585a5.059,5.059,0,0,1,4.257.842c.08.178.159.363.237.547A4.547,4.547,0,0,0,179.52,208.983Z" transform="translate(-60.435 -197.783)" fill="#fce179"/>
    <path id="Path_19155" data-name="Path 19155" d="M57.557,231.526c2.088,3.605,10.228,4.961,33.3,4.44a126.072,126.072,0,0,0,13.5,9.771c-15.758.31-33.717.569-38.7.266-9.384-.569-10.807-3.128-10.523-10.806A4.454,4.454,0,0,1,57.557,231.526Z" transform="translate(-54.33 -199.106)" stroke="#66fd01" stroke-width="1" fill="url(#linear-gradient-2)"/>
    <path id="Path_19156" data-name="Path 19156" d="M90.747,237.082c-21.892.5-31.363-.071-34.344-4.58a6.377,6.377,0,0,1,1.226-.977c2.088,3.605,10.228,4.961,33.3,4.44a126.072,126.072,0,0,0,13.5,9.771l-1.827.036A112.46,112.46,0,0,1,90.747,237.082Z" transform="translate(-54.402 -199.106)" fill="#fce179"/>
    <path id="Path_19157" data-name="Path 19157" d="M141.593,206.606c-9.106,6.647-39.852,25.363-45.463,22.823-4.37-1.98-6.839-3.6-8.309-5a58.789,58.789,0,0,0,6.457-2.777c1.776,1,3.72,1.711,5.318,1.3,2.653-.688,26.77-15.78,34.79-20.825C136.76,202.828,139.04,204.477,141.593,206.606Z" transform="translate(-56.146 -197.473)" fill="#624355"/>
    <path id="Path_19158" data-name="Path 19158" d="M133.623,208.882c.424.757,1.78.8,3.029.1s1.917-1.88,1.493-2.637-1.78-.8-3.029-.106S133.2,208.124,133.623,208.882Z" transform="translate(-58.682 -197.675)" fill="#474747"/>
    <path id="Path_19159" data-name="Path 19159" d="M126.059,213.313c.347.66,1.51.731,2.6.159s1.689-1.572,1.342-2.232-1.511-.731-2.6-.159S125.712,212.653,126.059,213.313Z" transform="translate(-58.264 -197.949)" fill="#474747"/>
    <path id="Path_19160" data-name="Path 19160" d="M118.952,217.631c.348.66,1.511.731,2.6.159s1.689-1.572,1.341-2.232-1.511-.731-2.6-.159S118.6,216.971,118.952,217.631Z" transform="translate(-57.869 -198.189)" fill="#474747"/>
    <path id="Path_19161" data-name="Path 19161" d="M111.576,221.769c.347.66,1.51.731,2.6.159s1.689-1.572,1.342-2.232-1.511-.731-2.6-.159S111.229,221.109,111.576,221.769Z" transform="translate(-57.46 -198.419)" fill="#474747"/>
    <path id="Path_19162" data-name="Path 19162" d="M103.512,225.795c.309.679,1.466.817,2.585.308s1.777-1.472,1.468-2.151-1.466-.817-2.585-.308S103.2,225.115,103.512,225.795Z" transform="translate(-57.013 -198.651)" fill="#474747"/>
    <path id="Path_19163" data-name="Path 19163" d="M122.409,204.477c-.819.551-1.374.82-.824,1.638l4.165,6.027a1.785,1.785,0,0,0,2.478.485h0a1.786,1.786,0,0,0,.485-2.478l-4.166-6.027c-.551-.818-1.32-.194-2.138.356Z" transform="translate(-58.008 -197.562)" fill="#f0d7cb"/>
    <path id="Path_19164" data-name="Path 19164" d="M130.234,199.73c-.818.55-1.374.819-.824,1.637l4.166,6.027a1.784,1.784,0,0,0,2.477.485h0a1.785,1.785,0,0,0,.485-2.478l-4.165-6.027c-.551-.818-1.321-.195-2.139.357Z" transform="translate(-58.443 -197.299)" fill="#f0d7cb"/>
    <path id="Path_19165" data-name="Path 19165" d="M115.457,208.578c-.84.517-1.405.763-.889,1.6l3.921,6.189a1.786,1.786,0,0,0,2.457.584h0a1.785,1.785,0,0,0,.584-2.457l-3.921-6.189c-.517-.84-1.312-.247-2.152.27Z" transform="translate(-57.62 -197.793)" fill="#f0d7cb"/>
    <path id="Path_19166" data-name="Path 19166" d="M108.513,212.921c-.84.518-1.405.764-.889,1.6l3.5,5.907a1.785,1.785,0,0,0,2.457.583h0a1.785,1.785,0,0,0,.583-2.457l-3.5-5.907c-.518-.84-1.312-.247-2.152.27Z" transform="translate(-57.235 -198.035)" fill="#f0d7cb"/>
    <path id="Path_19167" data-name="Path 19167" d="M100.864,217.582c-.84.517-1.406.763-.889,1.6l3.171,5.491a1.786,1.786,0,0,0,2.457.584h0a1.785,1.785,0,0,0,.584-2.457l-3.171-5.492c-.518-.839-1.313-.247-2.152.271Z" transform="translate(-56.81 -198.293)" fill="#f0d7cb"/>
  </g>
</svg>
